<?xml version="1.0"?><svg width="246.67273" height="272.57117" xmlns="http://www.w3.org/2000/svg">

 <metadata id="metadata3841">image/svg+xml</metadata>
 <g>
  <title>Layer 1</title>
  <path fill="#ffffff" stroke="#000000" stroke-width="3" stroke-linecap="round" stroke-linejoin="round" stroke-miterlimit="4" stroke-dashoffset="0" id="path2890-1" d="m217.588135,147.012878c-8.309082,4.302887 -22.812439,-1.731781 -33,2.5c-18.49765,7.683655 -41.253021,35.565521 -49.618286,42.470428c-15.013611,12.392639 -28.861206,17.608582 -37.381714,34.029572c-4.370636,8.423248 -10.033752,28.923401 -19,38c-2.001495,2.026123 -6.682739,3.917236 -9.5,3.5c-7.056671,-1.045166 -11.158569,-5.839539 -15.5,-11.5c-3.729584,-4.862701 -6.370392,-10.882935 -6,-17c1.316895,-21.749573 24.615997,-36.166809 31,-57c2.35202,-7.675446 6.693939,-17.487579 2,-24c-5.937256,-8.237396 -33.116699,-6.498993 -48,-14c-9.346924,-4.710724 -20.348907,-9.623291 -25,-19c-3.703033,-7.465393 -3.189026,-17.300995 0,-25c2.525574,-6.09729 8.781281,-7.784454 11,-14c2.252411,-6.309937 -1.826691,-13.925568 1,-20c3.23761,-6.957489 13.61731,-9.700684 18,-16c3.139679,-4.512695 1.487915,-8.77063 5,-13c5.62207,-6.770264 13.755951,-5.798676 20,-12c3.914948,-3.888123 6.743042,-10.489624 11,-14c6.362091,-5.246307 15.754944,-6.13736 24,-6c9.705475,0.161713 15.327271,4.187347 25,5c9.02359,0.758148 21.350647,-2.681183 30,0c21.445648,6.647919 31.75824,30.284973 51,44c7.45343,5.312622 20.253296,-1.185455 27,5c11.981506,10.984833 12.219849,29.897369 10,46c-2.287415,16.592865 -8.126282,34.297577 -23,42z"/>
  <path fill="#ffffff" stroke="#000000" stroke-width="3" stroke-linecap="round" stroke-linejoin="round" stroke-miterlimit="4" stroke-dashoffset="0" id="path3664-9" d="m22.588104,85.512909c0,0 28.513672,-6.766724 40.5,-2.5c15.51062,5.521271 23.735168,12.77948 39.5,20.5c3.146851,1.541107 5.459991,7.59549 3.5,10.5c-5.13092,7.603455 -16.862762,11.694031 -26,12.5c-11.838898,1.04425 -24.624756,-7.521698 -33.5,-10c-2.771088,-0.773804 -9.5,1.5 -9.5,1.5"/>
  <path fill="#ffffff" stroke="#000000" stroke-width="3" stroke-linecap="round" stroke-linejoin="round" stroke-miterlimit="4" stroke-dashoffset="0" id="path3701-4" d="m40.588104,52.012909c0,0.346313 23.766296,-1.126038 38,3.5c12.962463,4.212891 20.470612,11.095856 43.5,21c9.723999,4.181976 3.454315,8.134094 2,11.5c-3.086487,7.143463 -18,16.5 -18,16.5"/>
  <path fill="#ffffff" stroke="#000000" stroke-width="3" stroke-linecap="round" stroke-linejoin="round" stroke-miterlimit="4" stroke-dashoffset="0" id="path3703-7" d="m63.588104,26.012909c0,0 19.984528,0.470703 28.5,5c12.907257,6.865265 28.26059,12.859283 41,19.5c3.595947,1.874481 3.160126,8.114319 2,12c-1.687103,5.650787 -12,13 -12,13"/>
  <path fill="#ffffff" stroke="#000000" stroke-width="3" stroke-linecap="round" stroke-linejoin="round" stroke-miterlimit="4" stroke-dashoffset="0" id="path3705-8" d="m98.224152,5.512909c0,0 34.168152,11.003937 43.863953,20c2.591766,2.404724 0.618042,9.145905 -0.5,12.5c-1.788849,5.366577 -10,10 -10,10"/>
 </g>
</svg>